<?xml version="1.0" standalone="no"?>
<!DOCTYPE svg PUBLIC "-//W3C//DTD SVG 20010904//EN"
 "http://www.w3.org/TR/2001/REC-SVG-20010904/DTD/svg10.dtd">
<svg version="1.0" xmlns="http://www.w3.org/2000/svg"
 width="700.000000pt" height="700.000000pt" viewBox="0 0 700.000000 700.000000"
 preserveAspectRatio="xMidYMid meet">
<metadata>
Created by potrace 1.11, written by Peter Selinger 2001-2013
</metadata>
<g transform="translate(0.000000,700.000000) scale(0.100000,-0.100000)"
fill="#000000" stroke="none">
<path d="M4330 6932 c-161 -12 -340 -71 -476 -158 -241 -154 -424 -381 -558
-697 -24 -55 -36 -72 -66 -87 -89 -45 -171 -146 -200 -245 l-12 -41 -82 -17
c-171 -35 -457 -139 -548 -200 -16 -10 -28 -16 -28 -13 0 6 -157 -84 -218
-125 -24 -16 -47 -29 -53 -29 -5 0 -9 -4 -9 -8 0 -4 -15 -16 -32 -27 -18 -10
-35 -21 -38 -24 -3 -3 -38 -32 -78 -65 -115 -91 -239 -211 -344 -331 -42 -48
-169 -215 -175 -231 -2 -6 -25 -11 -51 -11 -211 -3 -386 -188 -384 -407 0 -85
31 -184 74 -240 l31 -38 -17 -60 c-17 -60 -41 -167 -51 -230 -3 -18 -8 -40
-10 -48 -2 -8 -7 -46 -11 -85 -3 -38 -8 -77 -9 -86 -19 -99 -33 -1078 -21
-1354 9 -181 17 -310 21 -325 2 -8 7 -46 10 -85 16 -182 66 -386 122 -503 30
-63 54 -95 137 -176 288 -284 699 -550 1086 -701 162 -63 393 -133 500 -150
19 -3 51 -10 70 -15 19 -4 76 -14 125 -20 50 -7 99 -14 110 -16 116 -22 631
-22 750 0 34 6 119 19 140 21 69 7 273 51 365 79 383 117 639 238 951 451 58
40 114 79 125 88 30 25 124 100 151 122 14 11 76 68 138 128 78 74 121 125
142 165 31 58 58 134 67 184 3 15 7 31 9 35 3 5 8 31 11 58 4 28 9 57 11 65 2
8 7 47 10 85 32 340 34 614 10 1610 -4 170 -11 281 -20 315 -2 8 -7 38 -11 65
-10 83 -42 234 -70 337 l-27 97 27 61 c68 152 35 337 -82 455 -55 55 -144 103
-208 112 -42 5 -48 11 -85 65 -83 122 -285 346 -410 453 -330 285 -737 486
-1144 566 l-113 22 -13 41 c-7 23 -19 51 -26 62 -13 20 -11 23 19 41 239 139
559 202 828 163 111 -16 119 -18 214 -45 199 -58 376 -153 552 -296 73 -60
214 -204 242 -248 9 -14 19 -28 23 -31 3 -3 23 -31 43 -62 20 -32 39 -58 42
-58 3 0 3 17 0 38 -3 20 -9 55 -12 77 -3 22 -10 60 -16 85 -5 25 -12 56 -14
70 -3 14 -10 43 -16 65 -6 22 -11 45 -12 50 -6 27 -39 134 -51 160 -7 17 -21
53 -31 80 -35 98 -141 297 -213 400 -112 162 -278 329 -416 419 -225 148 -463
216 -695 198z"/>
</g>
</svg>
