<?xml version="1.0" encoding="UTF-8" standalone="no"?><!DOCTYPE svg PUBLIC "-//W3C//DTD SVG 1.1//EN" "http://www.w3.org/Graphics/SVG/1.1/DTD/svg11.dtd"><svg width="100%" height="100%" viewBox="0 0 192 192" version="1.1" xmlns="http://www.w3.org/2000/svg" xmlns:xlink="http://www.w3.org/1999/xlink" xml:space="preserve" xmlns:serif="http://www.serif.com/" style="fill-rule:evenodd;clip-rule:evenodd;stroke-linecap:round;stroke-linejoin:round;stroke-miterlimit:1.5;"><g id="DwarfWithTopKnot"><g id="Top-Knot" serif:id="Top Knot"><path id="Pony-Tail" serif:id="Pony Tail" d="M159.383,47.331c-2.693,-27.087 -21.241,-47.451 -41.393,-45.448c-20.153,2.004 -34.328,25.622 -31.636,52.709c4.74,-14.149 17.913,-26.563 34.075,-28.17c16.162,-1.606 31.522,7.971 38.954,20.909Z" style="fill:#ff380d;"/><clipPath id="_clip1"><path d="M159.383,47.331c-2.693,-27.087 -21.241,-47.451 -41.393,-45.448c-20.153,2.004 -34.328,25.622 -31.636,52.709c4.74,-14.149 17.913,-26.563 34.075,-28.17c16.162,-1.606 31.522,7.971 38.954,20.909Z"/></clipPath><g clip-path="url(#_clip1)"><g id="Shadows"><path d="M93.368,28.169c3.57,-17.869 41.1,-46.488 66.735,18.632" style="fill:none;stroke:#0c1219;stroke-opacity:0.2;stroke-width:2.12px;"/><path d="M95.677,28.169c4.254,-5.547 30.102,-38.791 54.949,12.194" style="fill:none;stroke:#0c1219;stroke-opacity:0.2;stroke-width:2.12px;"/><path d="M102.503,28.762c4.255,-5.548 24.559,-29.939 49.406,21.045" style="fill:none;stroke:#0c1219;stroke-opacity:0.2;stroke-width:2.12px;"/><path d="M102.503,33.865c4.255,-5.547 24.559,-29.939 49.406,21.046" style="fill:none;stroke:#0c1219;stroke-opacity:0.2;stroke-width:2.12px;"/></g><path id="Highlights" d="M89.912,26.422c9.83,-24.398 35.792,-34.497 55.592,-12.425c4.963,5.533 11.972,22.249 16.446,32.024" style="fill:none;stroke:#fff;stroke-opacity:0.05;stroke-width:2.45px;"/><path d="M127.038,14.582c15.109,-0.253 32.706,18.456 32.346,39.87c-0.248,14.708 -14.011,16.121 -31.269,16.121c-17.257,0 -28.236,-12.348 -31.268,-26.653c-3.396,-16.021 19.475,-29.158 30.191,-29.338Z" style="fill:#ececec;fill-opacity:0.4;"/></g><ellipse id="Hairtie" cx="94.707" cy="36.76" rx="11.928" ry="10.571" style="fill:#50a5a5;"/><clipPath id="_clip2"><ellipse cx="94.707" cy="36.76" rx="11.928" ry="10.571"/></clipPath><g clip-path="url(#_clip2)"><path id="Shadows1" serif:id="Shadows" d="M83.764,35.944c4.882,-2.622 17.295,-2.492 22.315,-0.19" style="fill:none;stroke:#0c1219;stroke-opacity:0.4;stroke-width:2.02px;"/><path id="Highlights1" serif:id="Highlights" d="M85.489,28.851c5.29,-1.966 12.61,-2.092 17.869,0" style="fill:none;stroke:#fff;stroke-opacity:0.3;stroke-width:2.45px;"/></g></g><g id="Head"><g id="Ears"><ellipse id="Left-ear" serif:id="Left ear" cx="37.626" cy="76.364" rx="10.912" ry="11.224" style="fill:#ffeed8;"/><clipPath id="_clip3"><ellipse cx="37.626" cy="76.364" rx="10.912" ry="11.224"/></clipPath><g clip-path="url(#_clip3)"><ellipse id="Shadows2" serif:id="Shadows" cx="35.715" cy="75.276" rx="5.975" ry="6.607" style="fill:#2a2f37;fill-opacity:0.3;"/></g><ellipse id="Right-ear" serif:id="Right ear" cx="152.626" cy="76.364" rx="10.912" ry="11.224" style="fill:#ffeed8;"/><clipPath id="_clip4"><ellipse cx="152.626" cy="76.364" rx="10.912" ry="11.224"/></clipPath><g clip-path="url(#_clip4)"><ellipse id="Shadows3" serif:id="Shadows" cx="154.592" cy="75.276" rx="5.975" ry="6.607" style="fill:#2a2f37;fill-opacity:0.2;"/></g></g><ellipse id="Face" cx="95.928" cy="104.423" rx="69.214" ry="70.149" style="fill:#ffeed8;"/><clipPath id="_clip5"><ellipse cx="95.928" cy="104.423" rx="69.214" ry="70.149"/></clipPath><g clip-path="url(#_clip5)"><g id="Tattoos"><path d="M138.86,85.825l-0.163,-0.109l-0.299,0.103l-0.558,0.264l0.084,0.428l0.381,0.745l1.337,3.956l0.482,1.039l0.179,0.887l0.185,0.539l0.444,1.417l0.426,1.24l0.078,0.411l0.164,1.331l0.389,-0.024l0.859,-0.423l-0.478,-1.149l-0.275,-0.8l-0.121,-0.232l-0.381,-0.928l-0.34,-0.868l0.844,-0.71l1.677,-1.816l1.182,-2.649l-0.062,-0.18l0.406,-0.523l0.142,-1.964l-0.3,-1.484l0.002,-0.421l-0.977,0.08l-0.146,0.123l0.454,1.322l0.17,0.435l0.038,1.391l-0.43,1.06l-0.102,0.437l-0.76,1.501l-1.745,2.168l-0.67,0.485l-0.282,-0.76l-0.196,-0.572l0.631,-0.599l0.58,-0.564l0.71,-1.649l-0.179,-0.157l0.31,-0.435l0.121,-1.903l-0.229,-1.216l0.002,-0.421l-0.967,0.168l-0.146,0.123l0.353,1.028l0.132,0.447l0.041,1.337l-0.248,0.924l-0.157,0.455l-0.281,0.644l-0.459,0.796l-0.483,0.239l-0.151,-0.441l-0.334,-1.4l-0.257,-0.751l-0.284,-0.887l-0.028,-0.082l-0.112,-0.509l-0.203,-0.897Z" style="fill:#8c96a7;fill-rule:nonzero;"/><path d="M154.165,86.794l0.15,-0.416l0.124,-0.006l0.353,-0.432l0.251,-0.305l-0.162,-0.473l-0.053,-0.092l-1.043,-0.298l-0.503,-0.065l0.005,0.016l-0.815,-0.304l-1.356,-0.538l0.019,-0.006l-0.09,-0.079l-0.699,-0.271l-0.198,0.032l-0.412,0.688l0.347,0.283l0.528,0.074l0.333,-0.005l-0.006,-0.016l1.036,0.338l0.35,0.044l-0.006,-0.017l1.635,0.68l-0.019,0.189l-0.757,1.391l-0.818,1.211l-0.215,0.348l-0.549,0.535l0.545,0.306l0.621,0.042l0.155,-0.583l0.332,-0.679l-0.019,0.006l0.476,-0.929l0.46,-0.669Zm-4.909,2.269l-0.311,0.435l-0.283,0.516l-0.249,0.25l0.127,0.431l0.052,0.091l0.96,0.237l0.295,0.19l0.262,-0.09l0.774,0.246l1.796,0.661l-0.019,0.006l0.295,0.191l0.236,-0.045l0.423,-0.838l-0.521,-0.058l-0.659,-0.03l-0.937,-0.354l-2.094,-0.74l0.005,-0.167l-0.018,0.007l0.818,-1.394l0.006,0.016l1.097,-1.434l0.374,-0.494l-0.316,-0.311l-0.739,-0.02l-0.247,0.559l-0.135,0.521l-0.588,0.968l-0.404,0.65Z" style="fill:#8c96a7;fill-rule:nonzero;"/><path d="M159.519,83.625l-1.124,-0.472l-0.013,0.023l-0.049,-0.202l-0.728,-2.305l-0.069,-0.505l-0.229,-0.852l-0.765,0.208l-0.309,0.197l0.185,0.356l1.238,3.425l-0.103,-0.056l-0.579,1.056l-0.267,0.439l0.087,0.134l-0.415,0.434l-0.446,0.774l0.174,0.506l0.121,0.049l1.283,0.509l0.18,-0.026l0.677,0.389l0.78,0.261l0.1,0.111l0.071,0.085l0.829,2.416l0.191,1.103l0.305,-0.087l0.342,-0.099l0.378,-0.239l-0.058,-0.29l-0.187,-0.301l-0.155,-0.33l-0.946,-2.759l0.37,-0.565l0.296,-0.722l0.157,-0.09l0.701,-1.189l0.065,-0.114l-0.173,-0.506l-0.827,-0.337l-0.595,-0.087l-0.013,-0.16l-0.48,-0.182Zm-1.415,0.814l0.48,1.459l0.153,0.568l0.274,0.8l-0.413,-0.169l-0.235,-0.138l-1.721,-0.687l0.931,-1.432l0.363,-0.708l0.168,0.307Zm1.152,-0.177l1.577,0.572l-0.877,1.651l-0.123,0.189l-0.079,0.136l-0.297,-0.865l-0.046,-0.075l-0.125,-0.304l-0.357,-0.918l-0.316,-0.676l0.643,0.29Zm-1.733,-0.846l0.03,0.026l0.013,-0.023l-0.043,-0.003Zm0.866,-0.279l0.006,0.016l0.026,-0.045l-0.032,0.029Z" style="fill:#8c96a7;fill-rule:nonzero;"/></g><g id="Eyes"><g id="left-eye" serif:id="left eye"><path d="M78.296,99.361c-6.653,6.289 -18.279,-1.593 -15.756,-3.74" style="fill:none;stroke:#2a2f37;stroke-opacity:0.1;stroke-width:3px;"/><circle id="left-eye1" serif:id="left eye" cx="71.61" cy="89.146" r="10.6" style="fill:#2a2f37;"/><clipPath id="_clip6"><circle cx="71.61" cy="89.146" r="10.6"/></clipPath><g clip-path="url(#_clip6)"><circle cx="76.32" cy="87.276" r="1.247" style="fill:#fff;"/></g><circle cx="71.61" cy="89.146" r="10.6" style="fill:none;stroke:#fff;stroke-width:4.26px;"/></g><g id="right-eye" serif:id="right eye"><path d="M124.859,98.552c-5.99,6.924 -18.348,0.246 -16.052,-2.142" style="fill:none;stroke:#2a2f37;stroke-opacity:0.1;stroke-width:3px;"/><circle id="right-eye1" serif:id="right eye" cx="117.261" cy="89.146" r="10.6" style="fill:#2a2f37;"/><clipPath id="_clip7"><circle cx="117.261" cy="89.146" r="10.6"/></clipPath><g clip-path="url(#_clip7)"><circle cx="120.87" cy="87.276" r="1.247" style="fill:#fff;"/></g><circle cx="117.261" cy="89.146" r="10.6" style="fill:none;stroke:#fff;stroke-width:4.26px;"/></g></g><g id="Eyebrows"><g id="Left-eyebrow" serif:id="Left eyebrow"><path id="Shadow" d="M78.35,76.921c-9.709,-1.855 -16.655,3.099 -20.194,5.681" style="fill:none;stroke:#2a2f37;stroke-opacity:0.1;stroke-width:3px;"/><path id="Eyebrow" d="M81.59,77.271c-1.151,-4.501 -7.634,-6.737 -14.469,-4.99c-6.836,1.747 -11.451,6.82 -10.3,11.321c2.544,-2.089 6.818,-4.349 11.759,-5.612c4.94,-1.263 9.775,-1.33 13.01,-0.719Z" style="fill:#ff380d;"/><clipPath id="_clip8"><path d="M81.59,77.271c-1.151,-4.501 -7.634,-6.737 -14.469,-4.99c-6.836,1.747 -11.451,6.82 -10.3,11.321c2.544,-2.089 6.818,-4.349 11.759,-5.612c4.94,-1.263 9.775,-1.33 13.01,-0.719Z"/></clipPath><g clip-path="url(#_clip8)"><path id="Highlight" d="M55.186,82.203c2.691,-5.675 7.614,-9.018 12.998,-10.044c4.492,-0.857 9.304,-0.102 13.406,2.256" style="fill:none;stroke:#fff;stroke-opacity:0.1;stroke-width:2.45px;"/></g></g><g id="Right-eyebrow" serif:id="Right eyebrow"><path id="Shadow1" serif:id="Shadow" d="M108.651,77.558c9.708,-1.855 17.204,0.875 20.743,3.457" style="fill:none;stroke:#2a2f37;stroke-opacity:0.1;stroke-width:3px;"/><path id="Eyebrow1" serif:id="Eyebrow" d="M130.991,81.895c0.53,-4.616 -4.73,-9.016 -11.739,-9.821c-7.009,-0.805 -13.129,2.289 -13.659,6.905c3.122,-1.045 7.921,-1.633 12.987,-1.051c5.066,0.582 9.607,2.242 12.411,3.967Z" style="fill:#ff380d;"/><clipPath id="_clip9"><path d="M130.991,81.895c0.53,-4.616 -4.73,-9.016 -11.739,-9.821c-7.009,-0.805 -13.129,2.289 -13.659,6.905c3.122,-1.045 7.921,-1.633 12.987,-1.051c5.066,0.582 9.607,2.242 12.411,3.967Z"/></clipPath><g clip-path="url(#_clip9)"><path id="Highlight1" serif:id="Highlight" d="M134.202,82.46c-2.69,-5.675 -7.614,-9.018 -12.998,-10.044c-4.492,-0.857 -10.635,0.044 -14.737,2.402" style="fill:none;stroke:#fff;stroke-opacity:0.1;stroke-width:2.45px;"/></g></g></g><g id="Highlights2" serif:id="Highlights"><path id="Highlights3" serif:id="Highlights" d="M121.464,42.358c10.276,4.386 19.256,11.796 27.297,21.394" style="fill:none;stroke:#fff;stroke-opacity:0.7;stroke-width:2.45px;"/><path id="Highlights4" serif:id="Highlights" d="M117.271,40.693c0.791,0.288 0.001,-0.045 0.792,0.243" style="fill:none;stroke:#fff;stroke-opacity:0.7;stroke-width:2.45px;"/></g><ellipse id="Hair" cx="95.437" cy="34.533" rx="34.428" ry="13.114" style="fill:#ff380d;"/><clipPath id="_clip10"><ellipse cx="95.437" cy="34.533" rx="34.428" ry="13.114"/></clipPath><g clip-path="url(#_clip10)"><path d="M83.854,47.795c0.937,-5 0.773,-8.615 5.136,-14.59" style="fill:none;stroke:#2a2f37;stroke-opacity:0.1;stroke-width:1.95px;"/><path d="M94.65,47.719c0.069,-0.15 0.082,-12.511 0,-14.514" style="fill:none;stroke:#2a2f37;stroke-opacity:0.1;stroke-width:1.95px;"/><path d="M104.372,47.647c0.198,-7.98 -1.695,-13.923 -5.176,-14.591" style="fill:none;stroke:#2a2f37;stroke-opacity:0.1;stroke-width:1.95px;"/><path d="M114.012,47.647c-0.938,-5.001 -0.774,-8.616 -5.137,-14.591" style="fill:none;stroke:#2a2f37;stroke-opacity:0.1;stroke-width:1.95px;"/><path d="M71.234,45.15c0.378,-2.662 7.826,-9.404 9.392,-9.358" style="fill:none;stroke:#2a2f37;stroke-opacity:0.1;stroke-width:1.95px;"/><ellipse cx="87.225" cy="43.905" rx="21.651" ry="21.776" style="fill:#2f3e4f;fill-opacity:0.3;"/></g><path id="Shadow2" serif:id="Shadow" d="M28.875,100.388c3.069,-14.312 8.437,-30.569 16.305,-37.872" style="fill:none;stroke:#000;stroke-opacity:0.2;stroke-width:2.45px;"/></g><path id="Beard" d="M95.928,116.811c19.896,0 68.928,-35.758 69.214,-17.064c0.415,27.003 2.507,56.14 -4.693,63.408c-11.481,11.59 -32.388,26.979 -63.585,27.097c-31.126,0.118 -52.245,-15.172 -63.786,-26.406c-7.452,-7.253 -7.31,-34.295 -6.364,-59.734c0.779,-20.947 46.916,12.699 69.214,12.699Z" style="fill:#ff380d;"/><clipPath id="_clip11"><path d="M95.928,116.811c19.896,0 68.928,-35.758 69.214,-17.064c0.415,27.003 2.507,56.14 -4.693,63.408c-11.481,11.59 -32.388,26.979 -63.585,27.097c-31.126,0.118 -52.245,-15.172 -63.786,-26.406c-7.452,-7.253 -7.31,-34.295 -6.364,-59.734c0.779,-20.947 46.916,12.699 69.214,12.699Z"/></clipPath><g clip-path="url(#_clip11)"><path id="Mouth" d="M84.526,134.548c4.5,11.359 15.492,17.673 24.533,14.092c9.04,-3.582 12.727,-15.711 8.227,-27.069c-2.97,4.462 -7.987,9.116 -14.342,11.634c-6.355,2.517 -13.198,2.561 -18.418,1.343Z" style="fill:#b32200;"/><clipPath id="_clip12"><path d="M84.526,134.548c4.5,11.359 15.492,17.673 24.533,14.092c9.04,-3.582 12.727,-15.711 8.227,-27.069c-2.97,4.462 -7.987,9.116 -14.342,11.634c-6.355,2.517 -13.198,2.561 -18.418,1.343Z"/></clipPath><g clip-path="url(#_clip12)"><ellipse id="Tongue" cx="108.19" cy="148.384" rx="11.015" ry="9.041" style="fill:#ff000a;"/><path id="Shadows4" serif:id="Shadows" d="M118.182,121.571c-7.831,16.839 -18.836,19.644 -34.777,14.036" style="fill:none;stroke:#2a2f37;stroke-opacity:0.3;stroke-width:3px;"/><path id="Teeth" d="M80.564,129.659c2.788,7.489 13.48,10.431 23.861,6.565c10.381,-3.865 16.545,-13.083 13.757,-20.572c-3.553,3.88 -9.791,8.28 -17.294,11.074c-7.503,2.794 -15.099,3.545 -20.324,2.933Z" style="fill:#fff;"/></g><g id="Shadows5" serif:id="Shadows"><path d="M59.494,173.486c-15.11,-2.198 -25.003,-39.563 -26.665,-58.492" style="fill:none;stroke:#2a2f37;stroke-opacity:0.1;stroke-width:1.95px;"/><path d="M72.827,179.655c-15.11,-2.197 -25.003,-39.563 -26.666,-58.492" style="fill:none;stroke:#2a2f37;stroke-opacity:0.1;stroke-width:1.95px;"/><path d="M82.722,185.622c-13.859,-9.23 -20.493,-42.196 -21.889,-58.492" style="fill:none;stroke:#2a2f37;stroke-opacity:0.1;stroke-width:1.95px;"/><path d="M93.834,188.082c-8.726,-1.012 -14.564,-14.457 -18.084,-29.031c-2.385,-9.872 -3.706,-20.262 -4.14,-27.656" style="fill:none;stroke:#2a2f37;stroke-opacity:0.1;stroke-width:1.95px;"/><path d="M132.937,173.486c15.111,-2.198 25.003,-39.563 26.666,-58.492" style="fill:none;stroke:#2a2f37;stroke-opacity:0.1;stroke-width:1.95px;"/><path d="M119.605,179.655c15.11,-2.197 25.002,-39.563 26.665,-58.492" style="fill:none;stroke:#2a2f37;stroke-opacity:0.1;stroke-width:1.95px;"/><path d="M109.059,185.622c12.824,-5.588 20.282,-40.445 22.54,-58.492" style="fill:none;stroke:#2a2f37;stroke-opacity:0.1;stroke-width:1.95px;"/><path d="M99.619,188.082c14.636,-1.698 20.127,-38.377 21.202,-56.687" style="fill:none;stroke:#2a2f37;stroke-opacity:0.1;stroke-width:1.95px;"/><path d="M64.261,89.621c41.465,0 65.605,15.728 65.605,48.661c0,14.724 -4.566,44.979 -15.714,55.39c-13.785,12.875 -26.965,15.288 -49.891,15.288c-41.466,0 -75.131,-26.737 -75.131,-59.67c0,-32.932 33.665,-59.669 75.131,-59.669Z" style="fill:#2a2f37;fill-opacity:0.3;"/></g><g id="Highlights5" serif:id="Highlights"><path d="M26.257,103.672c1.485,-2.868 1.764,-7.177 9.08,-6.376c8.77,0.961 28.229,9.779 43.757,17.698" style="fill:none;stroke:#fff;stroke-opacity:0.1;stroke-width:2.45px;"/><path d="M167.837,94.337c-3.298,-0.752 -14.673,1.223 -26.48,5.41c-9.94,3.524 -19.654,8.809 -30.412,13.417" style="fill:none;stroke:#fff;stroke-opacity:0.1;stroke-width:2.45px;"/></g></g><g id="Nose"><path id="Shadow3" serif:id="Shadow" d="M80.274,114.583c2.956,9.987 22.599,15.233 28.349,-1.132" style="fill:none;stroke:#000;stroke-opacity:0.2;stroke-width:2.45px;"/><ellipse id="Nose1" serif:id="Nose" cx="94.417" cy="110.413" rx="15.948" ry="14.036" style="fill:#ffeed8;"/><clipPath id="_clip13"><ellipse cx="94.417" cy="110.413" rx="15.948" ry="14.036"/></clipPath><g clip-path="url(#_clip13)"><path d="M82.547,107.643c0,0 -5.722,6.104 0,11.93" style="fill:none;stroke:#2a2f37;stroke-opacity:0.1;stroke-width:3px;"/><path d="M107.022,107.643c0,0 5.722,6.104 0,11.93" style="fill:none;stroke:#2a2f37;stroke-opacity:0.1;stroke-width:3px;"/></g></g><g id="Forehead-wrinkles" serif:id="Forehead wrinkles"><path d="M61.381,65.92c5.692,-2.91 39.014,-10.911 66.651,-3.397" style="fill:none;stroke:#0c1219;stroke-opacity:0.2;stroke-width:2.45px;"/><path d="M66.265,58.785c4.891,-2.91 33.523,-10.912 57.271,-3.397" style="fill:none;stroke:#0c1219;stroke-opacity:0.2;stroke-width:2.12px;"/></g></g></g></svg>
